<mxfile host="app.diagrams.net" modified="2024-04-04T03:04:26.298Z" agent="Mozilla/5.0 (Macintosh; Intel Mac OS X 10_15_7) AppleWebKit/537.36 (KHTML, like Gecko) Chrome/123.0.0.0 Safari/537.36" etag="D9_omr1Cpk9w98Ff0VGV" version="24.1.0" type="github">
  <diagram name="Page-1" id="74b105a0-9070-1c63-61bc-23e55f88626e">
    <mxGraphModel dx="1569" dy="1092" grid="1" gridSize="10" guides="1" tooltips="1" connect="1" arrows="1" fold="1" page="1" pageScale="1.5" pageWidth="1169" pageHeight="826" background="none" math="0" shadow="0">
      <root>
        <mxCell id="0" style=";html=1;" />
        <mxCell id="1" style=";html=1;" parent="0" />
        <mxCell id="10b056a9c633e61c-19" value="&lt;font style=&quot;font-size: 13px;&quot;&gt;Webex messages&lt;/font&gt;" style="edgeStyle=orthogonalEdgeStyle;rounded=0;html=1;endArrow=block;endFill=1;jettySize=auto;orthogonalLoop=1;strokeWidth=2;startArrow=none;startFill=0;" parent="1" source="10b056a9c633e61c-2" target="OXvvBqYcgBK15INRSdvP-29" edge="1">
          <mxGeometry relative="1" as="geometry">
            <Array as="points">
              <mxPoint x="735" y="635" />
            </Array>
            <mxPoint x="735" y="430" as="targetPoint" />
          </mxGeometry>
        </mxCell>
        <mxCell id="iPaxALjcVpoltG5sylIj-11" style="edgeStyle=orthogonalEdgeStyle;rounded=0;orthogonalLoop=1;jettySize=auto;html=1;exitX=0.5;exitY=1;exitDx=0;exitDy=0;exitPerimeter=0;entryX=0;entryY=1;entryDx=0;entryDy=0;" edge="1" parent="1" source="10b056a9c633e61c-2" target="10b056a9c633e61c-8">
          <mxGeometry relative="1" as="geometry">
            <mxPoint x="590" y="770" as="sourcePoint" />
            <mxPoint x="1110" y="770" as="targetPoint" />
            <Array as="points">
              <mxPoint x="515" y="760" />
              <mxPoint x="1110" y="760" />
            </Array>
          </mxGeometry>
        </mxCell>
        <mxCell id="10b056a9c633e61c-2" value="Webex BOT(SpeedyBot)" style="strokeWidth=2;dashed=0;align=center;fontSize=12;fillColor=#c0f5a9;verticalLabelPosition=bottom;verticalAlign=top;shape=mxgraph.eip.recipient_list;" parent="1" vertex="1">
          <mxGeometry x="440" y="590" width="150" height="90" as="geometry" />
        </mxCell>
        <mxCell id="10b056a9c633e61c-17" style="edgeStyle=orthogonalEdgeStyle;rounded=0;html=1;endArrow=block;endFill=1;jettySize=auto;orthogonalLoop=1;strokeWidth=2;startArrow=block;startFill=1;entryX=0;entryY=0.5;entryDx=0;entryDy=0;entryPerimeter=0;" parent="1" source="10b056a9c633e61c-4" target="10b056a9c633e61c-2" edge="1">
          <mxGeometry relative="1" as="geometry">
            <mxPoint x="382" y="635" as="targetPoint" />
          </mxGeometry>
        </mxCell>
        <mxCell id="10b056a9c633e61c-4" value="Webex Space" style="strokeWidth=2;dashed=0;align=center;fontSize=12;shape=rect;verticalLabelPosition=bottom;verticalAlign=top;fillColor=#c0f5a9" parent="1" vertex="1">
          <mxGeometry x="172" y="590" width="150" height="90" as="geometry" />
        </mxCell>
        <mxCell id="10b056a9c633e61c-5" value="" style="strokeWidth=1;dashed=0;align=center;fontSize=8;shape=rect;fillColor=#ffffff;strokeColor=#000000;" parent="10b056a9c633e61c-4" vertex="1">
          <mxGeometry x="85" y="25" width="40" height="40" as="geometry" />
        </mxCell>
        <mxCell id="OXvvBqYcgBK15INRSdvP-6" value="Training data / Chat template as intialization" style="strokeWidth=2;dashed=0;align=center;fontSize=12;shape=rect;verticalLabelPosition=top;verticalAlign=bottom;fillColor=#F5F4D8;labelPosition=center;rounded=1;shadow=0;" parent="1" vertex="1">
          <mxGeometry x="595" y="210" width="440" height="280" as="geometry" />
        </mxCell>
        <mxCell id="OXvvBqYcgBK15INRSdvP-8" value="Leave" style="strokeWidth=1;dashed=0;align=center;fontSize=11;shape=rect;fillColor=#ffffff;strokeColor=#000000;" parent="OXvvBqYcgBK15INRSdvP-6" vertex="1">
          <mxGeometry x="25.659999999999997" y="36.521739130434796" width="117.34" height="36.521739130434796" as="geometry" />
        </mxCell>
        <mxCell id="OXvvBqYcgBK15INRSdvP-9" value="URL" style="strokeWidth=1;dashed=0;align=center;fontSize=11;shape=rect;fillColor=#ffffff;strokeColor=#000000;" parent="OXvvBqYcgBK15INRSdvP-6" vertex="1">
          <mxGeometry x="159.33000000000015" y="36.521739130434796" width="117.34" height="36.521739130434796" as="geometry" />
        </mxCell>
        <mxCell id="OXvvBqYcgBK15INRSdvP-10" value="Event" style="strokeWidth=1;dashed=0;align=center;fontSize=11;shape=rect;fillColor=#ffffff;strokeColor=#000000;" parent="OXvvBqYcgBK15INRSdvP-6" vertex="1">
          <mxGeometry x="293.0000000000002" y="36.521739130434796" width="117.34" height="36.521739130434796" as="geometry" />
        </mxCell>
        <mxCell id="OXvvBqYcgBK15INRSdvP-13" value="Test case" style="strokeWidth=1;dashed=0;align=center;fontSize=11;shape=rect;fillColor=#ffffff;strokeColor=#000000;" parent="OXvvBqYcgBK15INRSdvP-6" vertex="1">
          <mxGeometry x="293.0000000000002" y="97.3913043478261" width="117.34" height="36.521739130434796" as="geometry" />
        </mxCell>
        <mxCell id="OXvvBqYcgBK15INRSdvP-14" value="Meeting" style="strokeWidth=1;dashed=0;align=center;fontSize=11;shape=rect;fillColor=#ffffff;strokeColor=#000000;" parent="OXvvBqYcgBK15INRSdvP-6" vertex="1">
          <mxGeometry x="159.33000000000015" y="97.3913043478261" width="117.34" height="36.521739130434796" as="geometry" />
        </mxCell>
        <mxCell id="OXvvBqYcgBK15INRSdvP-15" value="PR" style="strokeWidth=1;dashed=0;align=center;fontSize=11;shape=rect;fillColor=#ffffff;strokeColor=#000000;" parent="OXvvBqYcgBK15INRSdvP-6" vertex="1">
          <mxGeometry x="25.660000000000082" y="97.3913043478261" width="117.34" height="36.521739130434796" as="geometry" />
        </mxCell>
        <mxCell id="OXvvBqYcgBK15INRSdvP-16" value="Others?" style="strokeWidth=1;dashed=0;align=center;fontSize=11;shape=rect;fillColor=#ffffff;strokeColor=#000000;" parent="OXvvBqYcgBK15INRSdvP-6" vertex="1">
          <mxGeometry x="293.0000000000002" y="158.2608695652174" width="117.34" height="36.521739130434796" as="geometry" />
        </mxCell>
        <mxCell id="OXvvBqYcgBK15INRSdvP-17" value="Person" style="strokeWidth=1;dashed=0;align=center;fontSize=11;shape=rect;fillColor=#ffffff;strokeColor=#000000;" parent="OXvvBqYcgBK15INRSdvP-6" vertex="1">
          <mxGeometry x="159.33000000000015" y="158.2608695652174" width="117.34" height="36.521739130434796" as="geometry" />
        </mxCell>
        <mxCell id="OXvvBqYcgBK15INRSdvP-18" value="Feature toggle" style="strokeWidth=1;dashed=0;align=center;fontSize=11;shape=rect;fillColor=#ffffff;strokeColor=#000000;" parent="OXvvBqYcgBK15INRSdvP-6" vertex="1">
          <mxGeometry x="25.660000000000082" y="158.2608695652174" width="117.34" height="36.521739130434796" as="geometry" />
        </mxCell>
        <mxCell id="OXvvBqYcgBK15INRSdvP-31" value="Formatted message" style="strokeWidth=1;dashed=0;align=center;fontSize=11;shape=rect;fillColor=#f5f5f5;strokeColor=#666666;fontColor=#030303;" parent="OXvvBqYcgBK15INRSdvP-6" vertex="1">
          <mxGeometry x="24.33" y="220" width="388.67" height="36.52" as="geometry" />
        </mxCell>
        <mxCell id="iPaxALjcVpoltG5sylIj-8" style="edgeStyle=orthogonalEdgeStyle;rounded=0;orthogonalLoop=1;jettySize=auto;html=1;entryX=0.5;entryY=1;entryDx=0;entryDy=0;" edge="1" parent="1" source="OXvvBqYcgBK15INRSdvP-29" target="OXvvBqYcgBK15INRSdvP-6">
          <mxGeometry relative="1" as="geometry" />
        </mxCell>
        <mxCell id="OXvvBqYcgBK15INRSdvP-29" value="Mistral LLM" style="strokeWidth=2;dashed=0;align=center;fontSize=12;fillColor=#c0f5a9;verticalLabelPosition=bottom;verticalAlign=top;shape=mxgraph.eip.composed_message_processor;labelPosition=center;" parent="1" vertex="1">
          <mxGeometry x="740" y="590" width="150" height="90" as="geometry" />
        </mxCell>
        <mxCell id="10b056a9c633e61c-23" style="edgeStyle=orthogonalEdgeStyle;rounded=0;html=1;endArrow=block;endFill=1;jettySize=auto;orthogonalLoop=1;strokeWidth=2;startArrow=none;startFill=0;entryX=0.5;entryY=0;entryDx=0;entryDy=0;" parent="1" source="10b056a9c633e61c-8" target="OXvvBqYcgBK15INRSdvP-24" edge="1">
          <mxGeometry relative="1" as="geometry">
            <mxPoint x="1240" y="510" as="targetPoint" />
            <Array as="points">
              <mxPoint x="1185" y="825" />
              <mxPoint x="1185" y="825" />
            </Array>
          </mxGeometry>
        </mxCell>
        <mxCell id="10b056a9c633e61c-8" value="Atlassian Wiki API" style="strokeWidth=2;dashed=0;align=center;fontSize=12;shape=rect;verticalLabelPosition=bottom;verticalAlign=top;fillColor=#c0f5a9" parent="1" vertex="1">
          <mxGeometry x="1110" y="590" width="150" height="90" as="geometry" />
        </mxCell>
        <mxCell id="OXvvBqYcgBK15INRSdvP-22" value="" style="aspect=fixed;sketch=0;html=1;dashed=0;whitespace=wrap;fillColor=#2875E2;strokeColor=#ffffff;points=[[0.005,0.63,0],[0.1,0.2,0],[0.9,0.2,0],[0.5,0,0],[0.995,0.63,0],[0.72,0.99,0],[0.5,1,0],[0.28,0.99,0]];shape=mxgraph.kubernetes.icon2;prIcon=api" parent="1" vertex="1">
          <mxGeometry x="1160" y="611" width="50" height="48" as="geometry" />
        </mxCell>
        <mxCell id="OXvvBqYcgBK15INRSdvP-26" value="" style="group" parent="1" vertex="1" connectable="0">
          <mxGeometry x="1110" y="855" width="150" height="90" as="geometry" />
        </mxCell>
        <mxCell id="OXvvBqYcgBK15INRSdvP-27" value="" style="group" parent="OXvvBqYcgBK15INRSdvP-26" vertex="1" connectable="0">
          <mxGeometry width="150" height="90" as="geometry" />
        </mxCell>
        <mxCell id="OXvvBqYcgBK15INRSdvP-24" value="Wiki page" style="strokeWidth=2;dashed=0;align=center;fontSize=12;shape=rect;verticalLabelPosition=bottom;verticalAlign=top;fillColor=#c0f5a9" parent="OXvvBqYcgBK15INRSdvP-27" vertex="1">
          <mxGeometry width="150" height="90" as="geometry" />
        </mxCell>
        <mxCell id="OXvvBqYcgBK15INRSdvP-23" value="" style="sketch=0;pointerEvents=1;shadow=0;dashed=0;html=1;strokeColor=none;fillColor=#505050;labelPosition=center;verticalLabelPosition=bottom;verticalAlign=top;outlineConnect=0;align=center;shape=mxgraph.office.sites.wiki_site;" parent="OXvvBqYcgBK15INRSdvP-27" vertex="1">
          <mxGeometry x="45.5" y="20" width="59" height="50" as="geometry" />
        </mxCell>
        <mxCell id="iPaxALjcVpoltG5sylIj-5" value="&lt;font style=&quot;font-size: 13px;&quot;&gt;Parsed documentable text&lt;/font&gt;" style="edgeStyle=orthogonalEdgeStyle;rounded=0;orthogonalLoop=1;jettySize=auto;html=1;entryX=0.5;entryY=0;entryDx=0;entryDy=0;entryPerimeter=0;" edge="1" parent="1" source="OXvvBqYcgBK15INRSdvP-29" target="10b056a9c633e61c-2">
          <mxGeometry relative="1" as="geometry">
            <Array as="points">
              <mxPoint x="815" y="550" />
              <mxPoint x="515" y="550" />
            </Array>
          </mxGeometry>
        </mxCell>
      </root>
    </mxGraphModel>
  </diagram>
</mxfile>
